<svg fill="none" width="800px" height="800px" viewBox="0 0 24 24" id="bracket-3" data-name="Flat Line" xmlns="http://www.w3.org/2000/svg" class="icon flat-line">
    <path id="primary" d="M15,3h1a2,2,0,0,1,2,2v5a2,2,0,0,0,2,2h0a2,2,0,0,0-2,2v5a2,2,0,0,1-2,2H15"
          style="fill: none; stroke: #ffff00; stroke-linecap: round; stroke-linejoin: round; stroke-width: 2;"></path>
    <path id="primary-2" data-name="primary" d="M9,3H8A2,2,0,0,0,6,5v5a2,2,0,0,1-2,2H4a2,2,0,0,1,2,2v5a2,2,0,0,0,2,2H9"
          style="fill: none; stroke: #ffff00; stroke-linecap: round; stroke-linejoin: round; stroke-width: 2;"></path>
</svg>